<svg xmlns="http://www.w3.org/2000/svg"><defs>
<symbol id="i-squares-four" viewBox="0 0 256 256" fill="currentColor"><path d="M104,40H56A16,16,0,0,0,40,56v48a16,16,0,0,0,16,16h48a16,16,0,0,0,16-16V56A16,16,0,0,0,104,40Zm0,64H56V56h48v48Zm96-64H152a16,16,0,0,0-16,16v48a16,16,0,0,0,16,16h48a16,16,0,0,0,16-16V56A16,16,0,0,0,200,40Zm0,64H152V56h48v48Zm-96,32H56a16,16,0,0,0-16,16v48a16,16,0,0,0,16,16h48a16,16,0,0,0,16-16V152A16,16,0,0,0,104,136Zm0,64H56V152h48v48Zm96-64H152a16,16,0,0,0-16,16v48a16,16,0,0,0,16,16h48a16,16,0,0,0,16-16V152A16,16,0,0,0,200,136Zm0,64H152V152h48v48Z"/></symbol>
<symbol id="i-briefcase" viewBox="0 0 256 256" fill="currentColor"><path d="M216,56H176V48a24,24,0,0,0-24-24H104A24,24,0,0,0,80,48v8H40A16,16,0,0,0,24,72V200a16,16,0,0,0,16,16H216a16,16,0,0,0,16-16V72A16,16,0,0,0,216,56ZM96,48a8,8,0,0,1,8-8h48a8,8,0,0,1,8,8v8H96ZM216,72v41.61A184,184,0,0,1,128,136a184.07,184.07,0,0,1-88-22.38V72Zm0,128H40V131.64A200.19,200.19,0,0,0,128,152a200.25,200.25,0,0,0,88-20.37V200ZM104,112a8,8,0,0,1,8-8h32a8,8,0,0,1,0,16H112A8,8,0,0,1,104,112Z"/></symbol>
<symbol id="i-users-three" viewBox="0 0 256 256" fill="currentColor"><path d="M244.8,150.4a8,8,0,0,1-11.2-1.6A51.6,51.6,0,0,0,192,128a8,8,0,0,1-7.37-4.89,8,8,0,0,1,0-6.22A8,8,0,0,1,192,112a24,24,0,1,0-23.24-30,8,8,0,1,1-15.5-4A40,40,0,1,1,219,117.51a67.94,67.94,0,0,1,27.43,21.68A8,8,0,0,1,244.8,150.4ZM190.92,212a8,8,0,1,1-13.84,8,57,57,0,0,0-98.16,0,8,8,0,1,1-13.84-8,72.06,72.06,0,0,1,33.74-29.92,48,48,0,1,1,58.36,0A72.06,72.06,0,0,1,190.92,212ZM128,176a32,32,0,1,0-32-32A32,32,0,0,0,128,176ZM72,120a8,8,0,0,0-8-8A24,24,0,1,1,87.24,82a8,8,0,1,0,15.5-4A40,40,0,1,0,37,117.51,67.94,67.94,0,0,0,9.6,139.19a8,8,0,1,0,12.8,9.61A51.6,51.6,0,0,1,64,128,8,8,0,0,0,72,120Z"/></symbol>
<symbol id="i-kanban" viewBox="0 0 256 256" fill="currentColor"><path d="M216,48H40a8,8,0,0,0-8,8V208a16,16,0,0,0,16,16H88a16,16,0,0,0,16-16V160h48v16a16,16,0,0,0,16,16h40a16,16,0,0,0,16-16V56A8,8,0,0,0,216,48ZM88,208H48V128H88Zm0-96H48V64H88Zm64,32H104V64h48Zm56,32H168V128h40Zm0-64H168V64h40Z"/></symbol>
<symbol id="i-calendar-dots" viewBox="0 0 256 256" fill="currentColor"><path d="M208,32H184V24a8,8,0,0,0-16,0v8H88V24a8,8,0,0,0-16,0v8H48A16,16,0,0,0,32,48V208a16,16,0,0,0,16,16H208a16,16,0,0,0,16-16V48A16,16,0,0,0,208,32ZM72,48v8a8,8,0,0,0,16,0V48h80v8a8,8,0,0,0,16,0V48h24V80H48V48ZM208,208H48V96H208V208Zm-68-76a12,12,0,1,1-12-12A12,12,0,0,1,140,132Zm44,0a12,12,0,1,1-12-12A12,12,0,0,1,184,132ZM96,172a12,12,0,1,1-12-12A12,12,0,0,1,96,172Zm44,0a12,12,0,1,1-12-12A12,12,0,0,1,140,172Zm44,0a12,12,0,1,1-12-12A12,12,0,0,1,184,172Z"/></symbol>
<symbol id="i-calendar-blank" viewBox="0 0 256 256" fill="currentColor"><path d="M208,32H184V24a8,8,0,0,0-16,0v8H88V24a8,8,0,0,0-16,0v8H48A16,16,0,0,0,32,48V208a16,16,0,0,0,16,16H208a16,16,0,0,0,16-16V48A16,16,0,0,0,208,32ZM72,48v8a8,8,0,0,0,16,0V48h80v8a8,8,0,0,0,16,0V48h24V80H48V48ZM208,208H48V96H208V208Z"/></symbol>
<symbol id="i-funnel" viewBox="0 0 256 256" fill="currentColor"><path d="M230.6,49.53A15.81,15.81,0,0,0,216,40H40A16,16,0,0,0,28.19,66.76l.08.09L96,139.17V216a16,16,0,0,0,24.87,13.32l32-21.34A16,16,0,0,0,160,194.66V139.17l67.74-72.32.08-.09A15.8,15.8,0,0,0,230.6,49.53ZM40,56h0Zm106.18,74.58A8,8,0,0,0,144,136v58.66L112,216V136a8,8,0,0,0-2.16-5.47L40,56H216Z"/></symbol>
<symbol id="i-address-book" viewBox="0 0 256 256" fill="currentColor"><path d="M83.19,174.4a8,8,0,0,0,11.21-1.6,52,52,0,0,1,83.2,0,8,8,0,1,0,12.8-9.6A67.88,67.88,0,0,0,163,141.51a40,40,0,1,0-53.94,0A67.88,67.88,0,0,0,81.6,163.2,8,8,0,0,0,83.19,174.4ZM112,112a24,24,0,1,1,24,24A24,24,0,0,1,112,112Zm96-88H64A16,16,0,0,0,48,40V64H32a8,8,0,0,0,0,16H48v40H32a8,8,0,0,0,0,16H48v40H32a8,8,0,0,0,0,16H48v24a16,16,0,0,0,16,16H208a16,16,0,0,0,16-16V40A16,16,0,0,0,208,24Zm0,192H64V40H208Z"/></symbol>
<symbol id="i-check-square" viewBox="0 0 256 256" fill="currentColor"><path d="M173.66,98.34a8,8,0,0,1,0,11.32l-56,56a8,8,0,0,1-11.32,0l-24-24a8,8,0,0,1,11.32-11.32L112,148.69l50.34-50.35A8,8,0,0,1,173.66,98.34ZM224,48V208a16,16,0,0,1-16,16H48a16,16,0,0,1-16-16V48A16,16,0,0,1,48,32H208A16,16,0,0,1,224,48ZM208,208V48H48V208H208Z"/></symbol>
<symbol id="i-gear-six" viewBox="0 0 256 256" fill="currentColor"><path d="M128,80a48,48,0,1,0,48,48A48.05,48.05,0,0,0,128,80Zm0,80a32,32,0,1,1,32-32A32,32,0,0,1,128,160Zm109.94-52.79a8,8,0,0,0-3.89-5.4l-29.83-17-.12-33.62a8,8,0,0,0-2.83-6.08,111.91,111.91,0,0,0-36.72-20.67,8,8,0,0,0-6.46.59L128,41.85,97.88,25a8,8,0,0,0-6.47-.6A112.1,112.1,0,0,0,54.73,45.15a8,8,0,0,0-2.83,6.07l-.15,33.65-29.83,17a8,8,0,0,0-3.89,5.4,106.47,106.47,0,0,0,0,41.56,8,8,0,0,0,3.89,5.4l29.83,17,.12,33.62a8,8,0,0,0,2.83,6.08,111.91,111.91,0,0,0,36.72,20.67,8,8,0,0,0,6.46-.59L128,214.15,158.12,231a7.91,7.91,0,0,0,3.9,1,8.09,8.09,0,0,0,2.57-.42,112.1,112.1,0,0,0,36.68-20.73,8,8,0,0,0,2.83-6.07l.15-33.65,29.83-17a8,8,0,0,0,3.89-5.4A106.47,106.47,0,0,0,237.94,107.21Zm-15,34.91-28.57,16.25a8,8,0,0,0-3,3c-.58,1-1.19,2.06-1.81,3.06a7.94,7.94,0,0,0-1.22,4.21l-.15,32.25a95.89,95.89,0,0,1-25.37,14.3L134,199.13a8,8,0,0,0-3.91-1h-.19c-1.21,0-2.43,0-3.64,0a8.08,8.08,0,0,0-4.1,1l-28.84,16.1A96,96,0,0,1,67.88,201l-.11-32.2a8,8,0,0,0-1.22-4.22c-.62-1-1.23-2-1.8-3.06a8.09,8.09,0,0,0-3-3.06l-28.6-16.29a90.49,90.49,0,0,1,0-28.26L61.67,97.63a8,8,0,0,0,3-3c.58-1,1.19-2.06,1.81-3.06a7.94,7.94,0,0,0,1.22-4.21l.15-32.25a95.89,95.89,0,0,1,25.37-14.3L122,56.87a8,8,0,0,0,4.1,1c1.21,0,2.43,0,3.64,0a8.08,8.08,0,0,0,4.1-1l28.84-16.1A96,96,0,0,1,188.12,55l.11,32.2a8,8,0,0,0,1.22,4.22c.62,1,1.23,2,1.8,3.06a8.09,8.09,0,0,0,3,3.06l28.6,16.29A90.49,90.49,0,0,1,222.9,142.12Z"/></symbol>
<symbol id="i-user-gear" viewBox="0 0 256 256" fill="currentColor"><path d="M144,157.68a68,68,0,1,0-71.9,0c-20.65,6.76-39.23,19.39-54.17,37.17a8,8,0,1,0,12.24,10.3C50.25,181.19,77.91,168,108,168s57.75,13.19,77.87,37.15a8,8,0,0,0,12.26-10.3C183.18,177.07,164.6,164.44,144,157.68ZM56,100a52,52,0,1,1,52,52A52.06,52.06,0,0,1,56,100Zm196.25,43.07-4.66-2.69a23.6,23.6,0,0,0,0-8.76l4.66-2.69a8,8,0,1,0-8-13.86l-4.67,2.7a23.92,23.92,0,0,0-7.58-4.39V108a8,8,0,0,0-16,0v5.38a23.92,23.92,0,0,0-7.58,4.39l-4.67-2.7a8,8,0,1,0-8,13.86l4.66,2.69a23.6,23.6,0,0,0,0,8.76l-4.66,2.69a8,8,0,0,0,8,13.86l4.67-2.7a23.92,23.92,0,0,0,7.58,4.39V164a8,8,0,0,0,16,0v-5.38a23.92,23.92,0,0,0,7.58-4.39l4.67,2.7a7.92,7.92,0,0,0,4,1.07,8,8,0,0,0,4-14.93ZM216,136a8,8,0,1,1,8,8A8,8,0,0,1,216,136Z"/></symbol>
<symbol id="i-envelope-simple" viewBox="0 0 256 256" fill="currentColor"><path d="M224,48H32a8,8,0,0,0-8,8V192a16,16,0,0,0,16,16H216a16,16,0,0,0,16-16V56A8,8,0,0,0,224,48ZM203.43,64,128,133.15,52.57,64ZM216,192H40V74.19l82.59,75.71a8,8,0,0,0,10.82,0L216,74.19V192Z"/></symbol>
<symbol id="i-magnifying-glass" viewBox="0 0 256 256" fill="currentColor"><path d="M229.66,218.34l-50.07-50.06a88.11,88.11,0,1,0-11.31,11.31l50.06,50.07a8,8,0,0,0,11.32-11.32ZM40,112a72,72,0,1,1,72,72A72.08,72.08,0,0,1,40,112Z"/></symbol>
<symbol id="i-sign-out" viewBox="0 0 256 256" fill="currentColor"><path d="M120,216a8,8,0,0,1-8,8H48a8,8,0,0,1-8-8V40a8,8,0,0,1,8-8h64a8,8,0,0,1,0,16H56V208h56A8,8,0,0,1,120,216Zm109.66-93.66-40-40a8,8,0,0,0-11.32,11.32L204.69,120H112a8,8,0,0,0,0,16h92.69l-26.35,26.34a8,8,0,0,0,11.32,11.32l40-40A8,8,0,0,0,229.66,122.34Z"/></symbol>
<symbol id="i-plus" viewBox="0 0 256 256" fill="currentColor"><path d="M224,128a8,8,0,0,1-8,8H136v80a8,8,0,0,1-16,0V136H40a8,8,0,0,1,0-16h80V40a8,8,0,0,1,16,0v80h80A8,8,0,0,1,224,128Z"/></symbol>
<symbol id="i-pencil-simple" viewBox="0 0 256 256" fill="currentColor"><path d="M227.31,73.37,182.63,28.68a16,16,0,0,0-22.63,0L36.69,152A15.86,15.86,0,0,0,32,163.31V208a16,16,0,0,0,16,16H92.69A15.86,15.86,0,0,0,104,219.31L227.31,96a16,16,0,0,0,0-22.63ZM92.69,208H48V163.31l88-88L180.69,120ZM192,108.68,147.31,64l24-24L216,84.68Z"/></symbol>
<symbol id="i-trash" viewBox="0 0 256 256" fill="currentColor"><path d="M216,48H176V40a24,24,0,0,0-24-24H104A24,24,0,0,0,80,40v8H40a8,8,0,0,0,0,16h8V208a16,16,0,0,0,16,16H192a16,16,0,0,0,16-16V64h8a8,8,0,0,0,0-16ZM96,40a8,8,0,0,1,8-8h48a8,8,0,0,1,8,8v8H96Zm96,168H64V64H192ZM112,104v64a8,8,0,0,1-16,0V104a8,8,0,0,1,16,0Zm48,0v64a8,8,0,0,1-16,0V104a8,8,0,0,1,16,0Z"/></symbol>
<symbol id="i-download-simple" viewBox="0 0 256 256" fill="currentColor"><path d="M224,144v64a8,8,0,0,1-8,8H40a8,8,0,0,1-8-8V144a8,8,0,0,1,16,0v56H208V144a8,8,0,0,1,16,0Zm-101.66,5.66a8,8,0,0,0,11.32,0l40-40a8,8,0,0,0-11.32-11.32L136,124.69V32a8,8,0,0,0-16,0v92.69L93.66,98.34a8,8,0,0,0-11.32,11.32Z"/></symbol>
<symbol id="i-paperclip" viewBox="0 0 256 256" fill="currentColor"><path d="M209.66,122.34a8,8,0,0,1,0,11.32l-82.05,82a56,56,0,0,1-79.2-79.21L147.67,35.73a40,40,0,1,1,56.61,56.55L105,193A24,24,0,1,1,71,159L154.3,74.38A8,8,0,1,1,165.7,85.6L82.39,170.31a8,8,0,1,0,11.27,11.36L192.93,81A24,24,0,1,0,159,47L59.76,147.68a40,40,0,1,0,56.53,56.62l82.06-82A8,8,0,0,1,209.66,122.34Z"/></symbol>
<symbol id="i-phone" viewBox="0 0 256 256" fill="currentColor"><path d="M222.37,158.46l-47.11-21.11-.13-.06a16,16,0,0,0-15.17,1.4,8.12,8.12,0,0,0-.75.56L134.87,160c-15.42-7.49-31.34-23.29-38.83-38.51l20.78-24.71c.2-.25.39-.5.57-.77a16,16,0,0,0,1.32-15.06l0-.12L97.54,33.64a16,16,0,0,0-16.62-9.52A56.26,56.26,0,0,0,32,80c0,79.4,64.6,144,144,144a56.26,56.26,0,0,0,55.88-48.92A16,16,0,0,0,222.37,158.46ZM176,208A128.14,128.14,0,0,1,48,80,40.2,40.2,0,0,1,82.87,40a.61.61,0,0,0,0,.12l21,47L83.2,111.86a6.13,6.13,0,0,0-.57.77,16,16,0,0,0-1,15.7c9.06,18.53,27.73,37.06,46.46,46.11a16,16,0,0,0,15.75-1.14,8.44,8.44,0,0,0,.74-.56L168.89,152l47,21.05h0s.08,0,.11,0A40.21,40.21,0,0,1,176,208Z"/></symbol>
<symbol id="i-map-pin" viewBox="0 0 256 256" fill="currentColor"><path d="M128,64a40,40,0,1,0,40,40A40,40,0,0,0,128,64Zm0,64a24,24,0,1,1,24-24A24,24,0,0,1,128,128Zm0-112a88.1,88.1,0,0,0-88,88c0,31.4,14.51,64.68,42,96.25a254.19,254.19,0,0,0,41.45,38.3,8,8,0,0,0,9.18,0A254.19,254.19,0,0,0,174,200.25c27.45-31.57,42-64.85,42-96.25A88.1,88.1,0,0,0,128,16Zm0,206c-16.53-13-72-60.75-72-118a72,72,0,0,1,144,0C200,161.23,144.53,209,128,222Z"/></symbol>
<symbol id="i-clock" viewBox="0 0 256 256" fill="currentColor"><path d="M128,24A104,104,0,1,0,232,128,104.11,104.11,0,0,0,128,24Zm0,192a88,88,0,1,1,88-88A88.1,88.1,0,0,1,128,216Zm64-88a8,8,0,0,1-8,8H128a8,8,0,0,1-8-8V72a8,8,0,0,1,16,0v48h48A8,8,0,0,1,192,128Z"/></symbol>
<symbol id="i-star" viewBox="0 0 256 256" fill="currentColor"><path d="M239.18,97.26A16.38,16.38,0,0,0,224.92,86l-59-4.76L143.14,26.15a16.36,16.36,0,0,0-30.27,0L90.11,81.23,31.08,86a16.46,16.46,0,0,0-9.37,28.86l45,38.83L53,211.75a16.38,16.38,0,0,0,24.5,17.82L128,198.49l50.53,31.08A16.4,16.4,0,0,0,203,211.75l-13.76-58.07,45-38.83A16.43,16.43,0,0,0,239.18,97.26Zm-15.34,5.47-48.7,42a8,8,0,0,0-2.56,7.91l14.88,62.8a.37.37,0,0,1-.17.48c-.18.14-.23.11-.38,0l-54.72-33.65a8,8,0,0,0-8.38,0L69.09,215.94c-.15.09-.19.12-.38,0a.37.37,0,0,1-.17-.48l14.88-62.8a8,8,0,0,0-2.56-7.91l-48.7-42c-.12-.1-.23-.19-.13-.5s.18-.27.33-.29l63.92-5.16A8,8,0,0,0,103,91.86l24.62-59.61c.08-.17.11-.25.35-.25s.27.08.35.25L153,91.86a8,8,0,0,0,6.75,4.92l63.92,5.16c.15,0,.24,0,.33.29S224,102.63,223.84,102.73Z"/></symbol>
<symbol id="i-arrow-left" viewBox="0 0 256 256" fill="currentColor"><path d="M224,128a8,8,0,0,1-8,8H59.31l58.35,58.34a8,8,0,0,1-11.32,11.32l-72-72a8,8,0,0,1,0-11.32l72-72a8,8,0,0,1,11.32,11.32L59.31,120H216A8,8,0,0,1,224,128Z"/></symbol>
<symbol id="i-arrow-right" viewBox="0 0 256 256" fill="currentColor"><path d="M221.66,133.66l-72,72a8,8,0,0,1-11.32-11.32L196.69,136H40a8,8,0,0,1,0-16H196.69L138.34,61.66a8,8,0,0,1,11.32-11.32l72,72A8,8,0,0,1,221.66,133.66Z"/></symbol>
<symbol id="i-x" viewBox="0 0 256 256" fill="currentColor"><path d="M205.66,194.34a8,8,0,0,1-11.32,11.32L128,139.31,61.66,205.66a8,8,0,0,1-11.32-11.32L116.69,128,50.34,61.66A8,8,0,0,1,61.66,50.34L128,116.69l66.34-66.35a8,8,0,0,1,11.32,11.32L139.31,128Z"/></symbol>
<symbol id="i-dots-three" viewBox="0 0 256 256" fill="currentColor"><path d="M140,128a12,12,0,1,1-12-12A12,12,0,0,1,140,128Zm56-12a12,12,0,1,0,12,12A12,12,0,0,0,196,116ZM60,116a12,12,0,1,0,12,12A12,12,0,0,0,60,116Z"/></symbol>
<symbol id="i-note-pencil" viewBox="0 0 256 256" fill="currentColor"><path d="M229.66,58.34l-32-32a8,8,0,0,0-11.32,0l-96,96A8,8,0,0,0,88,128v32a8,8,0,0,0,8,8h32a8,8,0,0,0,5.66-2.34l96-96A8,8,0,0,0,229.66,58.34ZM124.69,152H104V131.31l64-64L188.69,88ZM200,76.69,179.31,56,192,43.31,212.69,64ZM224,128v80a16,16,0,0,1-16,16H48a16,16,0,0,1-16-16V48A16,16,0,0,1,48,32h80a8,8,0,0,1,0,16H48V208H208V128a8,8,0,0,1,16,0Z"/></symbol>
<symbol id="i-video-camera" viewBox="0 0 256 256" fill="currentColor"><path d="M251.77,73a8,8,0,0,0-8.21.39L208,97.05V72a16,16,0,0,0-16-16H32A16,16,0,0,0,16,72V184a16,16,0,0,0,16,16H192a16,16,0,0,0,16-16V159l35.56,23.71A8,8,0,0,0,248,184a8,8,0,0,0,8-8V80A8,8,0,0,0,251.77,73ZM192,184H32V72H192V184Zm48-22.95-32-21.33V116.28L240,95Z"/></symbol>
<symbol id="i-buildings" viewBox="0 0 256 256" fill="currentColor"><path d="M240,208H224V96a16,16,0,0,0-16-16H144V32a16,16,0,0,0-24.88-13.32L39.12,72A16,16,0,0,0,32,85.34V208H16a8,8,0,0,0,0,16H240a8,8,0,0,0,0-16ZM208,96V208H144V96ZM48,85.34,128,32V208H48ZM112,112v16a8,8,0,0,1-16,0V112a8,8,0,1,1,16,0Zm-32,0v16a8,8,0,0,1-16,0V112a8,8,0,1,1,16,0Zm0,56v16a8,8,0,0,1-16,0V168a8,8,0,0,1,16,0Zm32,0v16a8,8,0,0,1-16,0V168a8,8,0,0,1,16,0Z"/></symbol>
<symbol id="i-link" viewBox="0 0 256 256" fill="currentColor"><path d="M240,88.23a54.43,54.43,0,0,1-16,37L189.25,160a54.27,54.27,0,0,1-38.63,16h-.05A54.63,54.63,0,0,1,96,119.84a8,8,0,0,1,16,.45A38.62,38.62,0,0,0,150.58,160h0a38.39,38.39,0,0,0,27.31-11.31l34.75-34.75a38.63,38.63,0,0,0-54.63-54.63l-11,11A8,8,0,0,1,135.7,59l11-11A54.65,54.65,0,0,1,224,48,54.86,54.86,0,0,1,240,88.23ZM109,185.66l-11,11A38.41,38.41,0,0,1,70.6,208h0a38.63,38.63,0,0,1-27.29-65.94L78,107.31A38.63,38.63,0,0,1,144,135.71a8,8,0,0,0,16,.45A54.86,54.86,0,0,0,144,96a54.65,54.65,0,0,0-77.27,0L32,130.75A54.62,54.62,0,0,0,70.56,224h0a54.28,54.28,0,0,0,38.64-16l11-11A8,8,0,0,0,109,185.66Z"/></symbol>
<symbol id="i-linkedin-logo" viewBox="0 0 256 256" fill="currentColor"><path d="M216,24H40A16,16,0,0,0,24,40V216a16,16,0,0,0,16,16H216a16,16,0,0,0,16-16V40A16,16,0,0,0,216,24Zm0,192H40V40H216V216ZM96,112v64a8,8,0,0,1-16,0V112a8,8,0,0,1,16,0Zm88,28v36a8,8,0,0,1-16,0V140a20,20,0,0,0-40,0v36a8,8,0,0,1-16,0V112a8,8,0,0,1,15.79-1.78A36,36,0,0,1,184,140ZM100,84A12,12,0,1,1,88,72,12,12,0,0,1,100,84Z"/></symbol>
<symbol id="i-chart-bar" viewBox="0 0 256 256" fill="currentColor"><path d="M224,200h-8V40a8,8,0,0,0-8-8H152a8,8,0,0,0-8,8V80H96a8,8,0,0,0-8,8v40H48a8,8,0,0,0-8,8v64H32a8,8,0,0,0,0,16H224a8,8,0,0,0,0-16ZM160,48h40V200H160ZM104,96h40V200H104ZM56,144H88v56H56Z"/></symbol>
<symbol id="i-trend-up" viewBox="0 0 256 256" fill="currentColor"><path d="M240,56v64a8,8,0,0,1-16,0V75.31l-82.34,82.35a8,8,0,0,1-11.32,0L96,123.31,29.66,189.66a8,8,0,0,1-11.32-11.32l72-72a8,8,0,0,1,11.32,0L136,140.69,212.69,64H168a8,8,0,0,1,0-16h64A8,8,0,0,1,240,56Z"/></symbol>
<symbol id="i-trend-down" viewBox="0 0 256 256" fill="currentColor"><path d="M240,128v64a8,8,0,0,1-8,8H168a8,8,0,0,1,0-16h44.69L136,107.31l-34.34,34.35a8,8,0,0,1-11.32,0l-72-72A8,8,0,0,1,29.66,58.34L96,124.69l34.34-34.35a8,8,0,0,1,11.32,0L224,172.69V128a8,8,0,0,1,16,0Z"/></symbol>
<symbol id="i-user-circle" viewBox="0 0 256 256" fill="currentColor"><path d="M128,24A104,104,0,1,0,232,128,104.11,104.11,0,0,0,128,24ZM74.08,197.5a64,64,0,0,1,107.84,0,87.83,87.83,0,0,1-107.84,0ZM96,120a32,32,0,1,1,32,32A32,32,0,0,1,96,120Zm97.76,66.41a79.66,79.66,0,0,0-36.06-28.75,48,48,0,1,0-59.4,0,79.66,79.66,0,0,0-36.06,28.75,88,88,0,1,1,131.52,0Z"/></symbol>
<symbol id="i-list" viewBox="0 0 256 256" fill="currentColor"><path d="M224,128a8,8,0,0,1-8,8H40a8,8,0,0,1,0-16H216A8,8,0,0,1,224,128ZM40,72H216a8,8,0,0,0,0-16H40a8,8,0,0,0,0,16ZM216,184H40a8,8,0,0,0,0,16H216a8,8,0,0,0,0-16Z"/></symbol>
<symbol id="i-sun" viewBox="0 0 256 256" fill="currentColor"><path d="M120,40V16a8,8,0,0,1,16,0V40a8,8,0,0,1-16,0Zm72,88a64,64,0,1,1-64-64A64.07,64.07,0,0,1,192,128Zm-16,0a48,48,0,1,0-48,48A48.05,48.05,0,0,0,176,128ZM58.34,69.66A8,8,0,0,0,69.66,58.34l-16-16A8,8,0,0,0,42.34,53.66Zm0,116.68-16,16a8,8,0,0,0,11.32,11.32l16-16a8,8,0,0,0-11.32-11.32ZM192,72a8,8,0,0,0,5.66-2.34l16-16a8,8,0,0,0-11.32-11.32l-16,16A8,8,0,0,0,192,72Zm5.66,114.34a8,8,0,0,0-11.32,11.32l16,16a8,8,0,0,0,11.32-11.32ZM48,128a8,8,0,0,0-8-8H16a8,8,0,0,0,0,16H40A8,8,0,0,0,48,128Zm80,80a8,8,0,0,0-8,8v24a8,8,0,0,0,16,0V216A8,8,0,0,0,128,208Zm112-88H216a8,8,0,0,0,0,16h24a8,8,0,0,0,0-16Z"/></symbol>
<symbol id="i-moon" viewBox="0 0 256 256" fill="currentColor"><path d="M233.54,142.23a8,8,0,0,0-8-2,88.08,88.08,0,0,1-109.8-109.8,8,8,0,0,0-10-10,104.84,104.84,0,0,0-52.91,37A104,104,0,0,0,136,224a103.09,103.09,0,0,0,62.52-20.88,104.84,104.84,0,0,0,37-52.91A8,8,0,0,0,233.54,142.23ZM188.9,190.34A88,88,0,0,1,65.66,67.11a89,89,0,0,1,31.4-26A106,106,0,0,0,96,56,104.11,104.11,0,0,0,200,160a106,106,0,0,0,14.92-1.06A89,89,0,0,1,188.9,190.34Z"/></symbol>
<symbol id="i-file-text" viewBox="0 0 256 256" fill="currentColor"><path d="M213.66,82.34l-56-56A8,8,0,0,0,152,24H56A16,16,0,0,0,40,40V216a16,16,0,0,0,16,16H200a16,16,0,0,0,16-16V88A8,8,0,0,0,213.66,82.34ZM160,51.31,188.69,80H160ZM200,216H56V40h88V88a8,8,0,0,0,8,8h48V216Zm-32-80a8,8,0,0,1-8,8H96a8,8,0,0,1,0-16h64A8,8,0,0,1,168,136Zm0,32a8,8,0,0,1-8,8H96a8,8,0,0,1,0-16h64A8,8,0,0,1,168,168Z"/></symbol>
<symbol id="i-file-pdf" viewBox="0 0 256 256" fill="currentColor"><path d="M224,152a8,8,0,0,1-8,8H192v16h16a8,8,0,0,1,0,16H192v16a8,8,0,0,1-16,0V152a8,8,0,0,1,8-8h32A8,8,0,0,1,224,152ZM92,172a28,28,0,0,1-28,28H56v8a8,8,0,0,1-16,0V152a8,8,0,0,1,8-8H64A28,28,0,0,1,92,172Zm-16,0a12,12,0,0,0-12-12H56v24h8A12,12,0,0,0,76,172Zm88,8a36,36,0,0,1-36,36H112a8,8,0,0,1-8-8V152a8,8,0,0,1,8-8h16A36,36,0,0,1,164,180Zm-16,0a20,20,0,0,0-20-20h-8v40h8A20,20,0,0,0,148,180ZM40,112V40A16,16,0,0,1,56,24h96a8,8,0,0,1,5.66,2.34l56,56A8,8,0,0,1,216,88v24a8,8,0,0,1-16,0V96H152a8,8,0,0,1-8-8V40H56v72a8,8,0,0,1-16,0ZM160,80h28.69L160,51.31Z"/></symbol>
<symbol id="i-upload-simple" viewBox="0 0 256 256" fill="currentColor"><path d="M224,144v64a8,8,0,0,1-8,8H40a8,8,0,0,1-8-8V144a8,8,0,0,1,16,0v56H208V144a8,8,0,0,1,16,0ZM93.66,77.66,120,51.31V144a8,8,0,0,0,16,0V51.31l26.34,26.35a8,8,0,0,0,11.32-11.32l-40-40a8,8,0,0,0-11.32,0l-40,40A8,8,0,0,0,93.66,77.66Z"/></symbol>
<symbol id="i-eye" viewBox="0 0 256 256" fill="currentColor"><path d="M247.31,124.76c-.35-.79-8.82-19.58-27.65-38.41C194.57,61.26,162.88,48,128,48S61.43,61.26,36.34,86.35C17.51,105.18,9,124,8.69,124.76a8,8,0,0,0,0,6.5c.35.79,8.82,19.57,27.65,38.4C61.43,194.74,93.12,208,128,208s66.57-13.26,91.66-38.34c18.83-18.83,27.3-37.61,27.65-38.4A8,8,0,0,0,247.31,124.76ZM128,192c-30.78,0-57.67-11.19-79.93-33.25A133.47,133.47,0,0,1,25,128,133.33,133.33,0,0,1,48.07,97.25C70.33,75.19,97.22,64,128,64s57.67,11.19,79.93,33.25A133.46,133.46,0,0,1,231.05,128C223.84,141.46,192.43,192,128,192Zm0-112a48,48,0,1,0,48,48A48.05,48.05,0,0,0,128,80Zm0,80a32,32,0,1,1,32-32A32,32,0,0,1,128,160Z"/></symbol>
<symbol id="i-chat-circle-text" viewBox="0 0 256 256" fill="currentColor"><path d="M168,112a8,8,0,0,1-8,8H96a8,8,0,0,1,0-16h64A8,8,0,0,1,168,112Zm-8,24H96a8,8,0,0,0,0,16h64a8,8,0,0,0,0-16Zm72-8A104,104,0,0,1,79.12,219.82L45.07,231.17a16,16,0,0,1-20.24-20.24l11.35-34.05A104,104,0,1,1,232,128Zm-16,0A88,88,0,1,0,51.81,172.06a8,8,0,0,1,.66,6.54L40,216,77.4,203.53a7.85,7.85,0,0,1,2.53-.42,8,8,0,0,1,4,1.08A88,88,0,0,0,216,128Z"/></symbol>
<symbol id="i-phone-call" viewBox="0 0 256 256" fill="currentColor"><path d="M144.27,45.93a8,8,0,0,1,9.8-5.66,86.22,86.22,0,0,1,61.66,61.66,8,8,0,0,1-5.66,9.8A8.23,8.23,0,0,1,208,112a8,8,0,0,1-7.73-5.94,70.35,70.35,0,0,0-50.33-50.33A8,8,0,0,1,144.27,45.93Zm-2.33,41.8c13.79,3.68,22.65,12.54,26.33,26.33A8,8,0,0,0,176,120a8.23,8.23,0,0,0,2.07-.27,8,8,0,0,0,5.66-9.8c-5.12-19.16-18.5-32.54-37.66-37.66a8,8,0,1,0-4.13,15.46Zm81.94,95.35A56.26,56.26,0,0,1,168,232C88.6,232,24,167.4,24,88A56.26,56.26,0,0,1,72.92,32.12a16,16,0,0,1,16.62,9.52l21.12,47.15,0,.12A16,16,0,0,1,109.39,104c-.18.27-.37.52-.57.77L88,129.45c7.49,15.22,23.41,31,38.83,38.51l24.34-20.71a8.12,8.12,0,0,1,.75-.56,16,16,0,0,1,15.17-1.4l.13.06,47.11,21.11A16,16,0,0,1,223.88,183.08Zm-15.88-2s-.07,0-.11,0h0l-47-21.05-24.35,20.71a8.44,8.44,0,0,1-.74.56,16,16,0,0,1-15.75,1.14c-18.73-9.05-37.4-27.58-46.46-46.11a16,16,0,0,1,1-15.7,6.13,6.13,0,0,1,.57-.77L96,95.15l-21-47a.61.61,0,0,1,0-.12A40.2,40.2,0,0,0,40,88,128.14,128.14,0,0,0,168,216,40.21,40.21,0,0,0,208,181.07Z"/></symbol>
<symbol id="i-handshake" viewBox="0 0 256 256" fill="currentColor"><path d="M254.3,107.91,228.78,56.85a16,16,0,0,0-21.47-7.15L182.44,62.13,130.05,48.27a8.14,8.14,0,0,0-4.1,0L73.56,62.13,48.69,49.7a16,16,0,0,0-21.47,7.15L1.7,107.9a16,16,0,0,0,7.15,21.47l27,13.51,55.49,39.63a8.06,8.06,0,0,0,2.71,1.25l64,16a8,8,0,0,0,7.6-2.1l55.07-55.08,26.42-13.21a16,16,0,0,0,7.15-21.46Zm-54.89,33.37L165,113.72a8,8,0,0,0-10.68.61C136.51,132.27,116.66,130,104,122L147.24,80h31.81l27.21,54.41ZM41.53,64,62,74.22,36.43,125.27,16,115.06Zm116,119.13L99.42,168.61l-49.2-35.14,28-56L128,64.28l9.8,2.59-45,43.68-.08.09a16,16,0,0,0,2.72,24.81c20.56,13.13,45.37,11,64.91-5L188,152.66Zm62-57.87-25.52-51L214.47,64,240,115.06Zm-87.75,92.67a8,8,0,0,1-7.75,6.06,8.13,8.13,0,0,1-1.95-.24L80.41,213.33a7.89,7.89,0,0,1-2.71-1.25L51.35,193.26a8,8,0,0,1,9.3-13l25.11,17.94L126,208.24A8,8,0,0,1,131.82,217.94Z"/></symbol>
<symbol id="i-currency-circle-dollar" viewBox="0 0 256 256" fill="currentColor"><path d="M128,24A104,104,0,1,0,232,128,104.11,104.11,0,0,0,128,24Zm0,192a88,88,0,1,1,88-88A88.1,88.1,0,0,1,128,216Zm40-68a28,28,0,0,1-28,28h-4v8a8,8,0,0,1-16,0v-8H104a8,8,0,0,1,0-16h36a12,12,0,0,0,0-24H116a28,28,0,0,1,0-56h4V72a8,8,0,0,1,16,0v8h16a8,8,0,0,1,0,16H116a12,12,0,0,0,0,24h24A28,28,0,0,1,168,148Z"/></symbol>
<symbol id="i-target" viewBox="0 0 256 256" fill="currentColor"><path d="M221.87,83.16A104.1,104.1,0,1,1,195.67,49l22.67-22.68a8,8,0,0,1,11.32,11.32l-96,96a8,8,0,0,1-11.32-11.32l27.72-27.72a40,40,0,1,0,17.87,31.09,8,8,0,1,1,16-.9,56,56,0,1,1-22.38-41.65L184.3,60.39a87.88,87.88,0,1,0,23.13,29.67,8,8,0,0,1,14.44-6.9Z"/></symbol>
<symbol id="i-check" viewBox="0 0 256 256" fill="currentColor"><path d="M229.66,77.66l-128,128a8,8,0,0,1-11.32,0l-56-56a8,8,0,0,1,11.32-11.32L96,188.69,218.34,66.34a8,8,0,0,1,11.32,11.32Z"/></symbol>
<symbol id="i-check-circle" viewBox="0 0 256 256" fill="currentColor"><path d="M173.66,98.34a8,8,0,0,1,0,11.32l-56,56a8,8,0,0,1-11.32,0l-24-24a8,8,0,0,1,11.32-11.32L112,148.69l50.34-50.35A8,8,0,0,1,173.66,98.34ZM232,128A104,104,0,1,1,128,24,104.11,104.11,0,0,1,232,128Zm-16,0a88,88,0,1,0-88,88A88.1,88.1,0,0,0,216,128Z"/></symbol>
<symbol id="i-x-circle" viewBox="0 0 256 256" fill="currentColor"><path d="M165.66,101.66,139.31,128l26.35,26.34a8,8,0,0,1-11.32,11.32L128,139.31l-26.34,26.35a8,8,0,0,1-11.32-11.32L116.69,128,90.34,101.66a8,8,0,0,1,11.32-11.32L128,116.69l26.34-26.35a8,8,0,0,1,11.32,11.32ZM232,128A104,104,0,1,1,128,24,104.11,104.11,0,0,1,232,128Zm-16,0a88,88,0,1,0-88,88A88.1,88.1,0,0,0,216,128Z"/></symbol>
<symbol id="i-warning" viewBox="0 0 256 256" fill="currentColor"><path d="M236.8,188.09,149.35,36.22h0a24.76,24.76,0,0,0-42.7,0L19.2,188.09a23.51,23.51,0,0,0,0,23.72A24.35,24.35,0,0,0,40.55,224h174.9a24.35,24.35,0,0,0,21.33-12.19A23.51,23.51,0,0,0,236.8,188.09ZM222.93,203.8a8.5,8.5,0,0,1-7.48,4.2H40.55a8.5,8.5,0,0,1-7.48-4.2,7.59,7.59,0,0,1,0-7.72L120.52,44.21a8.75,8.75,0,0,1,15,0l87.45,151.87A7.59,7.59,0,0,1,222.93,203.8ZM120,144V104a8,8,0,0,1,16,0v40a8,8,0,0,1-16,0Zm20,36a12,12,0,1,1-12-12A12,12,0,0,1,140,180Z"/></symbol>
<symbol id="i-info" viewBox="0 0 256 256" fill="currentColor"><path d="M128,24A104,104,0,1,0,232,128,104.11,104.11,0,0,0,128,24Zm0,192a88,88,0,1,1,88-88A88.1,88.1,0,0,1,128,216Zm16-40a8,8,0,0,1-8,8,16,16,0,0,1-16-16V128a8,8,0,0,1,0-16,16,16,0,0,1,16,16v40A8,8,0,0,1,144,176ZM112,84a12,12,0,1,1,12,12A12,12,0,0,1,112,84Z"/></symbol>
<symbol id="i-caret-down" viewBox="0 0 256 256" fill="currentColor"><path d="M213.66,101.66l-80,80a8,8,0,0,1-11.32,0l-80-80A8,8,0,0,1,53.66,90.34L128,164.69l74.34-74.35a8,8,0,0,1,11.32,11.32Z"/></symbol>
<symbol id="i-caret-right" viewBox="0 0 256 256" fill="currentColor"><path d="M181.66,133.66l-80,80a8,8,0,0,1-11.32-11.32L164.69,128,90.34,53.66a8,8,0,0,1,11.32-11.32l80,80A8,8,0,0,1,181.66,133.66Z"/></symbol>
<symbol id="i-arrow-square-out" viewBox="0 0 256 256" fill="currentColor"><path d="M224,104a8,8,0,0,1-16,0V59.32l-66.33,66.34a8,8,0,0,1-11.32-11.32L196.68,48H152a8,8,0,0,1,0-16h64a8,8,0,0,1,8,8Zm-40,24a8,8,0,0,0-8,8v72H48V80h72a8,8,0,0,0,0-16H48A16,16,0,0,0,32,80V208a16,16,0,0,0,16,16H176a16,16,0,0,0,16-16V136A8,8,0,0,0,184,128Z"/></symbol>
<symbol id="i-calendar-plus" viewBox="0 0 256 256" fill="currentColor"><path d="M208,32H184V24a8,8,0,0,0-16,0v8H88V24a8,8,0,0,0-16,0v8H48A16,16,0,0,0,32,48V208a16,16,0,0,0,16,16H208a16,16,0,0,0,16-16V48A16,16,0,0,0,208,32ZM72,48v8a8,8,0,0,0,16,0V48h80v8a8,8,0,0,0,16,0V48h24V80H48V48ZM208,208H48V96H208V208Zm-48-56a8,8,0,0,1-8,8H136v16a8,8,0,0,1-16,0V160H104a8,8,0,0,1,0-16h16V128a8,8,0,0,1,16,0v16h16A8,8,0,0,1,160,152Z"/></symbol>
<symbol id="i-user-plus" viewBox="0 0 256 256" fill="currentColor"><path d="M256,136a8,8,0,0,1-8,8H232v16a8,8,0,0,1-16,0V144H200a8,8,0,0,1,0-16h16V112a8,8,0,0,1,16,0v16h16A8,8,0,0,1,256,136Zm-57.87,58.85a8,8,0,0,1-12.26,10.3C165.75,181.19,138.09,168,108,168s-57.75,13.19-77.87,37.15a8,8,0,0,1-12.25-10.3c14.94-17.78,33.52-30.41,54.17-37.17a68,68,0,1,1,71.9,0C164.6,164.44,183.18,177.07,198.13,194.85ZM108,152a52,52,0,1,0-52-52A52.06,52.06,0,0,0,108,152Z"/></symbol>
<symbol id="i-identification-card" viewBox="0 0 256 256" fill="currentColor"><path d="M200,112a8,8,0,0,1-8,8H152a8,8,0,0,1,0-16h40A8,8,0,0,1,200,112Zm-8,24H152a8,8,0,0,0,0,16h40a8,8,0,0,0,0-16Zm40-80V200a16,16,0,0,1-16,16H40a16,16,0,0,1-16-16V56A16,16,0,0,1,40,40H216A16,16,0,0,1,232,56ZM216,200V56H40V200H216Zm-80.26-34a8,8,0,1,1-15.5,4c-2.63-10.26-13.06-18-24.25-18s-21.61,7.74-24.25,18a8,8,0,1,1-15.5-4,39.84,39.84,0,0,1,17.19-23.34,32,32,0,1,1,45.12,0A39.76,39.76,0,0,1,135.75,166ZM96,136a16,16,0,1,0-16-16A16,16,0,0,0,96,136Z"/></symbol>
<symbol id="i-export" viewBox="0 0 256 256" fill="currentColor"><path d="M216,112v96a16,16,0,0,1-16,16H56a16,16,0,0,1-16-16V112A16,16,0,0,1,56,96H80a8,8,0,0,1,0,16H56v96H200V112H176a8,8,0,0,1,0-16h24A16,16,0,0,1,216,112ZM93.66,69.66,120,43.31V136a8,8,0,0,0,16,0V43.31l26.34,26.35a8,8,0,0,0,11.32-11.32l-40-40a8,8,0,0,0-11.32,0l-40,40A8,8,0,0,0,93.66,69.66Z"/></symbol>
<symbol id="i-funnel-simple" viewBox="0 0 256 256" fill="currentColor"><path d="M200,136a8,8,0,0,1-8,8H64a8,8,0,0,1,0-16H192A8,8,0,0,1,200,136Zm32-56H24a8,8,0,0,0,0,16H232a8,8,0,0,0,0-16Zm-80,96H104a8,8,0,0,0,0,16h48a8,8,0,0,0,0-16Z"/></symbol>
<symbol id="i-globe" viewBox="0 0 256 256" fill="currentColor"><path d="M128,24h0A104,104,0,1,0,232,128,104.12,104.12,0,0,0,128,24Zm88,104a87.61,87.61,0,0,1-3.33,24H174.16a157.44,157.44,0,0,0,0-48h38.51A87.61,87.61,0,0,1,216,128ZM102,168H154a115.11,115.11,0,0,1-26,45A115.27,115.27,0,0,1,102,168Zm-3.9-16a140.84,140.84,0,0,1,0-48h59.88a140.84,140.84,0,0,1,0,48ZM40,128a87.61,87.61,0,0,1,3.33-24H81.84a157.44,157.44,0,0,0,0,48H43.33A87.61,87.61,0,0,1,40,128ZM154,88H102a115.11,115.11,0,0,1,26-45A115.27,115.27,0,0,1,154,88Zm52.33,0H170.71a135.28,135.28,0,0,0-22.3-45.6A88.29,88.29,0,0,1,206.37,88ZM107.59,42.4A135.28,135.28,0,0,0,85.29,88H49.63A88.29,88.29,0,0,1,107.59,42.4ZM49.63,168H85.29a135.28,135.28,0,0,0,22.3,45.6A88.29,88.29,0,0,1,49.63,168Zm98.78,45.6a135.28,135.28,0,0,0,22.3-45.6h35.66A88.29,88.29,0,0,1,148.41,213.6Z"/></symbol>
<symbol id="i-hourglass" viewBox="0 0 256 256" fill="currentColor"><path d="M200,75.64V40a16,16,0,0,0-16-16H72A16,16,0,0,0,56,40V76a16.07,16.07,0,0,0,6.4,12.8L114.67,128,62.4,167.2A16.07,16.07,0,0,0,56,180v36a16,16,0,0,0,16,16H184a16,16,0,0,0,16-16V180.36a16.09,16.09,0,0,0-6.35-12.77L141.27,128l52.38-39.6A16.05,16.05,0,0,0,200,75.64ZM184,216H72V180l56-42,56,42.35Zm0-140.36L128,118,72,76V40H184Z"/></symbol>
<symbol id="i-flag" viewBox="0 0 256 256" fill="currentColor"><path d="M42.76,50A8,8,0,0,0,40,56V224a8,8,0,0,0,16,0V179.77c26.79-21.16,49.87-9.75,76.45,3.41,16.4,8.11,34.06,16.85,53,16.85,13.93,0,28.54-4.75,43.82-18a8,8,0,0,0,2.76-6V56A8,8,0,0,0,218.76,50c-28,24.23-51.72,12.49-79.21-1.12C111.07,34.76,78.78,18.79,42.76,50ZM216,172.25c-26.79,21.16-49.87,9.74-76.45-3.41-25-12.35-52.81-26.13-83.55-8.4V59.79c26.79-21.16,49.87-9.75,76.45,3.4,25,12.35,52.82,26.13,83.55,8.4Z"/></symbol>
<symbol id="i-bell" viewBox="0 0 256 256" fill="currentColor"><path d="M221.8,175.94C216.25,166.38,208,139.33,208,104a80,80,0,1,0-160,0c0,35.34-8.26,62.38-13.81,71.94A16,16,0,0,0,48,200H88.81a40,40,0,0,0,78.38,0H208a16,16,0,0,0,13.8-24.06ZM128,216a24,24,0,0,1-22.62-16h45.24A24,24,0,0,1,128,216ZM48,184c7.7-13.24,16-43.92,16-80a64,64,0,1,1,128,0c0,36.05,8.28,66.73,16,80Z"/></symbol>
<symbol id="i-copy" viewBox="0 0 256 256" fill="currentColor"><path d="M216,32H88a8,8,0,0,0-8,8V80H40a8,8,0,0,0-8,8V216a8,8,0,0,0,8,8H168a8,8,0,0,0,8-8V176h40a8,8,0,0,0,8-8V40A8,8,0,0,0,216,32ZM160,208H48V96H160Zm48-48H176V88a8,8,0,0,0-8-8H96V48H208Z"/></symbol>
<symbol id="i-lock" viewBox="0 0 256 256" fill="currentColor"><path d="M208,80H176V56a48,48,0,0,0-96,0V80H48A16,16,0,0,0,32,96V208a16,16,0,0,0,16,16H208a16,16,0,0,0,16-16V96A16,16,0,0,0,208,80ZM96,56a32,32,0,0,1,64,0V80H96ZM208,208H48V96H208V208Zm-68-56a12,12,0,1,1-12-12A12,12,0,0,1,140,152Z"/></symbol>
<symbol id="i-key" viewBox="0 0 256 256" fill="currentColor"><path d="M216.57,39.43A80,80,0,0,0,83.91,120.78L28.69,176A15.86,15.86,0,0,0,24,187.31V216a16,16,0,0,0,16,16H72a8,8,0,0,0,8-8V208H96a8,8,0,0,0,8-8V184h16a8,8,0,0,0,5.66-2.34l9.56-9.57A79.73,79.73,0,0,0,160,176h.1A80,80,0,0,0,216.57,39.43ZM224,98.1c-1.09,34.09-29.75,61.86-63.89,61.9H160a63.7,63.7,0,0,1-23.65-4.51,8,8,0,0,0-8.84,1.68L116.69,168H96a8,8,0,0,0-8,8v16H72a8,8,0,0,0-8,8v16H40V187.31l58.83-58.82a8,8,0,0,0,1.68-8.84A63.72,63.72,0,0,1,96,95.92c0-34.14,27.81-62.8,61.9-63.89A64,64,0,0,1,224,98.1ZM192,76a12,12,0,1,1-12-12A12,12,0,0,1,192,76Z"/></symbol>
<symbol id="i-house" viewBox="0 0 256 256" fill="currentColor"><path d="M219.31,108.68l-80-80a16,16,0,0,0-22.62,0l-80,80A15.87,15.87,0,0,0,32,120v96a8,8,0,0,0,8,8h64a8,8,0,0,0,8-8V160h32v56a8,8,0,0,0,8,8h64a8,8,0,0,0,8-8V120A15.87,15.87,0,0,0,219.31,108.68ZM208,208H160V152a8,8,0,0,0-8-8H104a8,8,0,0,0-8,8v56H48V120l80-80,80,80Z"/></symbol>
<symbol id="i-tag" viewBox="0 0 256 256" fill="currentColor"><path d="M243.31,136,144,36.69A15.86,15.86,0,0,0,132.69,32H40a8,8,0,0,0-8,8v92.69A15.86,15.86,0,0,0,36.69,144L136,243.31a16,16,0,0,0,22.63,0l84.68-84.68a16,16,0,0,0,0-22.63Zm-96,96L48,132.69V48h84.69L232,147.31ZM96,84A12,12,0,1,1,84,72,12,12,0,0,1,96,84Z"/></symbol>
<symbol id="i-arrows-clockwise" viewBox="0 0 256 256" fill="currentColor"><path d="M224,48V96a8,8,0,0,1-8,8H168a8,8,0,0,1,0-16h28.69L182.06,73.37a79.56,79.56,0,0,0-56.13-23.43h-.45A79.52,79.52,0,0,0,69.59,72.71,8,8,0,0,1,58.41,61.27a96,96,0,0,1,135,.79L208,76.69V48a8,8,0,0,1,16,0ZM186.41,183.29a80,80,0,0,1-112.47-.66L59.31,168H88a8,8,0,0,0,0-16H40a8,8,0,0,0-8,8v48a8,8,0,0,0,16,0V179.31l14.63,14.63A95.43,95.43,0,0,0,130,222.06h.53a95.36,95.36,0,0,0,67.07-27.33,8,8,0,0,0-11.18-11.44Z"/></symbol>
<symbol id="i-lightning" viewBox="0 0 256 256" fill="currentColor"><path d="M215.79,118.17a8,8,0,0,0-5-5.66L153.18,90.9l14.66-73.33a8,8,0,0,0-13.69-7l-112,120a8,8,0,0,0,3,13l57.63,21.61L88.16,238.43a8,8,0,0,0,13.69,7l112-120A8,8,0,0,0,215.79,118.17ZM109.37,214l10.47-52.38a8,8,0,0,0-5-9.06L62,132.71l84.62-90.66L136.16,94.43a8,8,0,0,0,5,9.06l52.8,19.8Z"/></symbol>
<symbol id="i-sidebar-simple" viewBox="0 0 256 256" fill="currentColor"><path d="M216,40H40A16,16,0,0,0,24,56V200a16,16,0,0,0,16,16H216a16,16,0,0,0,16-16V56A16,16,0,0,0,216,40ZM40,56H80V200H40ZM216,200H96V56H216V200Z"/></symbol>
<symbol id="i-chart-line-up" viewBox="0 0 256 256" fill="currentColor"><path d="M232,208a8,8,0,0,1-8,8H32a8,8,0,0,1-8-8V48a8,8,0,0,1,16,0V156.69l50.34-50.35a8,8,0,0,1,11.32,0L128,132.69,180.69,80H160a8,8,0,0,1,0-16h40a8,8,0,0,1,8,8v40a8,8,0,0,1-16,0V91.31l-58.34,58.35a8,8,0,0,1-11.32,0L96,123.31l-56,56V200H224A8,8,0,0,1,232,208Z"/></symbol>
<symbol id="i-clipboard-text" viewBox="0 0 256 256" fill="currentColor"><path d="M168,152a8,8,0,0,1-8,8H96a8,8,0,0,1,0-16h64A8,8,0,0,1,168,152Zm-8-40H96a8,8,0,0,0,0,16h64a8,8,0,0,0,0-16Zm56-64V216a16,16,0,0,1-16,16H56a16,16,0,0,1-16-16V48A16,16,0,0,1,56,32H92.26a47.92,47.92,0,0,1,71.48,0H200A16,16,0,0,1,216,48ZM96,64h64a32,32,0,0,0-64,0ZM200,48H173.25A47.93,47.93,0,0,1,176,64v8a8,8,0,0,1-8,8H88a8,8,0,0,1-8-8V64a47.93,47.93,0,0,1,2.75-16H56V216H200Z"/></symbol>
<symbol id="i-user-list" viewBox="0 0 256 256" fill="currentColor"><path d="M152,80a8,8,0,0,1,8-8h88a8,8,0,0,1,0,16H160A8,8,0,0,1,152,80Zm96,40H160a8,8,0,0,0,0,16h88a8,8,0,0,0,0-16Zm0,48H184a8,8,0,0,0,0,16h64a8,8,0,0,0,0-16Zm-96.25,22a8,8,0,0,1-5.76,9.74,7.55,7.55,0,0,1-2,.26,8,8,0,0,1-7.75-6c-6.16-23.94-30.34-42-56.25-42s-50.09,18.05-56.25,42a8,8,0,0,1-15.5-4c5.59-21.71,21.84-39.29,42.46-48a48,48,0,1,1,58.58,0C129.91,150.71,146.16,168.29,151.75,190ZM80,136a32,32,0,1,0-32-32A32,32,0,0,0,80,136Z"/></symbol>
<symbol id="i-sliders-horizontal" viewBox="0 0 256 256" fill="currentColor"><path d="M40,88H73a32,32,0,0,0,62,0h81a8,8,0,0,0,0-16H135a32,32,0,0,0-62,0H40a8,8,0,0,0,0,16Zm64-24A16,16,0,1,1,88,80,16,16,0,0,1,104,64ZM216,168H199a32,32,0,0,0-62,0H40a8,8,0,0,0,0,16h97a32,32,0,0,0,62,0h17a8,8,0,0,0,0-16Zm-48,24a16,16,0,1,1,16-16A16,16,0,0,1,168,192Z"/></symbol>
<symbol id="i-square" viewBox="0 0 256 256" fill="currentColor"><path d="M208,32H48A16,16,0,0,0,32,48V208a16,16,0,0,0,16,16H208a16,16,0,0,0,16-16V48A16,16,0,0,0,208,32Zm0,176H48V48H208V208Z"/></symbol>
<symbol id="i-circle" viewBox="0 0 256 256" fill="currentColor"><path d="M128,24A104,104,0,1,0,232,128,104.11,104.11,0,0,0,128,24Zm0,192a88,88,0,1,1,88-88A88.1,88.1,0,0,1,128,216Z"/></symbol>
<symbol id="i-graduation-cap" viewBox="0 0 256 256" fill="currentColor"><path d="M251.76,88.94l-120-64a8,8,0,0,0-7.52,0l-120,64a8,8,0,0,0,0,14.12L32,117.87v48.42a15.91,15.91,0,0,0,4.06,10.65C49.16,191.53,78.51,216,128,216a130,130,0,0,0,48-8.76V240a8,8,0,0,0,16,0V199.51a115.63,115.63,0,0,0,27.94-22.57A15.91,15.91,0,0,0,224,166.29V117.87l27.76-14.81a8,8,0,0,0,0-14.12ZM128,200c-43.27,0-68.72-21.14-80-33.71V126.4l76.24,40.66a8,8,0,0,0,7.52,0L176,143.47v46.34C163.4,195.69,147.52,200,128,200Zm80-33.75a97.83,97.83,0,0,1-16,14.25V134.93l16-8.53ZM188,118.94l-.22-.13-56-29.87a8,8,0,0,0-7.52,14.12L171,128l-43,22.93L25,96,128,41.07,231,96Z"/></symbol>
<symbol id="i-laptop" viewBox="0 0 256 256" fill="currentColor"><path d="M232,168h-8V72a24,24,0,0,0-24-24H56A24,24,0,0,0,32,72v96H24a8,8,0,0,0-8,8v16a24,24,0,0,0,24,24H216a24,24,0,0,0,24-24V176A8,8,0,0,0,232,168ZM48,72a8,8,0,0,1,8-8H200a8,8,0,0,1,8,8v96H48ZM224,192a8,8,0,0,1-8,8H40a8,8,0,0,1-8-8v-8H224ZM152,88a8,8,0,0,1-8,8H112a8,8,0,0,1,0-16h32A8,8,0,0,1,152,88Z"/></symbol>
<symbol id="i-code" viewBox="0 0 256 256" fill="currentColor"><path d="M69.12,94.15,28.5,128l40.62,33.85a8,8,0,1,1-10.24,12.29l-48-40a8,8,0,0,1,0-12.29l48-40a8,8,0,0,1,10.24,12.3Zm176,27.7-48-40a8,8,0,1,0-10.24,12.3L227.5,128l-40.62,33.85a8,8,0,1,0,10.24,12.29l48-40a8,8,0,0,0,0-12.29ZM162.73,32.48a8,8,0,0,0-10.25,4.79l-64,176a8,8,0,0,0,4.79,10.26A8.14,8.14,0,0,0,96,224a8,8,0,0,0,7.52-5.27l64-176A8,8,0,0,0,162.73,32.48Z"/></symbol>
<symbol id="i-rocket-launch" viewBox="0 0 256 256" fill="currentColor"><path d="M223.85,47.12a16,16,0,0,0-15-15c-12.58-.75-44.73.4-71.41,27.07L132.69,64H74.36A15.91,15.91,0,0,0,63,68.68L28.7,103a16,16,0,0,0,9.07,27.16l38.47,5.37,44.21,44.21,5.37,38.49a15.94,15.94,0,0,0,10.78,12.92,16.11,16.11,0,0,0,5.1.83A15.91,15.91,0,0,0,153,227.3L187.32,193A15.91,15.91,0,0,0,192,181.64V123.31l4.77-4.77C223.45,91.86,224.6,59.71,223.85,47.12ZM74.36,80h42.33L77.16,119.52,40,114.34Zm74.41-9.45a76.65,76.65,0,0,1,59.11-22.47,76.46,76.46,0,0,1-22.42,59.16L128,164.68,91.32,128ZM176,181.64,141.67,216l-5.19-37.17L176,139.31Zm-74.16,9.5C97.34,201,82.29,224,40,224a8,8,0,0,1-8-8c0-42.29,23-57.34,32.86-61.85a8,8,0,0,1,6.64,14.56c-6.43,2.93-20.62,12.36-23.12,38.91,26.55-2.5,36-16.69,38.91-23.12a8,8,0,1,1,14.56,6.64Z"/></symbol>
<symbol id="i-plant" viewBox="0 0 256 256" fill="currentColor"><path d="M247.63,47.89a8,8,0,0,0-7.52-7.52c-51.76-3-93.32,12.74-111.18,42.22-11.8,19.49-11.78,43.16-.16,65.74a71.34,71.34,0,0,0-14.17,27L98.33,159c7.82-16.33,7.52-33.35-1-47.49-13.2-21.79-43.67-33.47-81.5-31.25a8,8,0,0,0-7.52,7.52c-2.23,37.83,9.46,68.3,31.25,81.5A45.82,45.82,0,0,0,63.44,176,54.58,54.58,0,0,0,87,170.33l25,25V224a8,8,0,0,0,16,0V194.51a55.61,55.61,0,0,1,12.27-35,73.91,73.91,0,0,0,33.31,8.4,60.9,60.9,0,0,0,31.83-8.86C234.89,141.21,250.67,99.65,247.63,47.89ZM47.81,155.6C32.47,146.31,23.79,124.32,24,96c28.32-.24,50.31,8.47,59.6,23.81,4.85,8,5.64,17.33,2.46,26.94L61.65,122.34a8,8,0,0,0-11.31,11.31l24.41,24.41C65.14,161.24,55.82,160.45,47.81,155.6Zm149.31-10.22c-13.4,8.11-29.15,8.73-45.15,2l53.69-53.7a8,8,0,0,0-11.31-11.31L140.65,136c-6.76-16-6.15-31.76,2-45.15,13.94-23,47-35.82,89.33-34.83C232.94,98.34,220.14,131.44,197.12,145.38Z"/></symbol>
<symbol id="i-star-fill" viewBox="0 0 256 256" fill="currentColor"><path d="M234.29,114.85l-45,38.83L203,211.75a16.4,16.4,0,0,1-24.5,17.82L128,198.49,77.47,229.57A16.4,16.4,0,0,1,53,211.75l13.76-58.07-45-38.83A16.46,16.46,0,0,1,31.08,86l59-4.76,22.76-55.08a16.36,16.36,0,0,1,30.27,0l22.75,55.08,59,4.76a16.46,16.46,0,0,1,9.37,28.86Z"/></symbol>
<symbol id="i-check-circle-fill" viewBox="0 0 256 256" fill="currentColor"><path d="M128,24A104,104,0,1,0,232,128,104.11,104.11,0,0,0,128,24Zm45.66,85.66-56,56a8,8,0,0,1-11.32,0l-24-24a8,8,0,0,1,11.32-11.32L112,148.69l50.34-50.35a8,8,0,0,1,11.32,11.32Z"/></symbol>
<symbol id="i-circle-fill" viewBox="0 0 256 256" fill="currentColor"><path d="M232,128A104,104,0,1,1,128,24,104.13,104.13,0,0,1,232,128Z"/></symbol>
<symbol id="i-shield-check" viewBox="0 0 256 256" fill="currentColor"><path d="M208,40H48A16,16,0,0,0,32,56v56c0,52.72,25.52,84.67,46.93,102.19,23.06,18.86,46,25.26,47,25.53a8,8,0,0,0,4.2,0c1-.27,23.91-6.67,47-25.53C198.48,196.67,224,164.72,224,112V56A16,16,0,0,0,208,40Zm0,72c0,37.07-13.66,67.16-40.6,89.42A129.3,129.3,0,0,1,128,223.62a128.25,128.25,0,0,1-38.92-21.81C61.82,179.51,48,149.3,48,112l0-56,160,0ZM82.34,141.66a8,8,0,0,1,11.32-11.32L112,148.69l50.34-50.35a8,8,0,0,1,11.32,11.32l-56,56a8,8,0,0,1-11.32,0Z"/></symbol>
<symbol id="i-clock-counter-clockwise" viewBox="0 0 256 256" fill="currentColor"><path d="M136,80v43.47l36.12,21.67a8,8,0,0,1-8.24,13.72l-40-24A8,8,0,0,1,120,128V80a8,8,0,0,1,16,0Zm-8-48A95.44,95.44,0,0,0,60.08,60.15C52.81,67.51,46.35,74.59,40,82V64a8,8,0,0,0-16,0v40a8,8,0,0,0,8,8H72a8,8,0,0,0,0-16H49c7.15-8.42,14.27-16.35,22.39-24.57a80,80,0,1,1,1.66,114.75,8,8,0,1,0-11,11.64A96,96,0,1,0,128,32Z"/></symbol>
<symbol id="i-arrow-up-right" viewBox="0 0 256 256" fill="currentColor"><path d="M200,64V168a8,8,0,0,1-16,0V83.31L69.66,197.66a8,8,0,0,1-11.32-11.32L172.69,72H88a8,8,0,0,1,0-16H192A8,8,0,0,1,200,64Z"/></symbol>
<symbol id="i-user-minus" viewBox="0 0 256 256" fill="currentColor"><path d="M256,136a8,8,0,0,1-8,8H200a8,8,0,0,1,0-16h48A8,8,0,0,1,256,136Zm-57.87,58.85a8,8,0,0,1-12.26,10.3C165.75,181.19,138.09,168,108,168s-57.75,13.19-77.87,37.15a8,8,0,0,1-12.25-10.3c14.94-17.78,33.52-30.41,54.17-37.17a68,68,0,1,1,71.9,0C164.6,164.44,183.18,177.07,198.13,194.85ZM108,152a52,52,0,1,0-52-52A52.06,52.06,0,0,0,108,152Z"/></symbol>
<symbol id="i-power" viewBox="0 0 256 256" fill="currentColor"><path d="M120,128V48a8,8,0,0,1,16,0v80a8,8,0,0,1-16,0Zm60.37-78.7a8,8,0,0,0-8.74,13.4C194.74,77.77,208,101.57,208,128a80,80,0,0,1-160,0c0-26.43,13.26-50.23,36.37-65.3a8,8,0,0,0-8.74-13.4C47.9,67.38,32,96.06,32,128a96,96,0,0,0,192,0C224,96.06,208.1,67.38,180.37,49.3Z"/></symbol>
<symbol id="i-paper-plane-tilt" viewBox="0 0 256 256" fill="currentColor"><path d="M227.32,28.68a16,16,0,0,0-15.66-4.08l-.15,0L19.57,82.84a16,16,0,0,0-2.49,29.8L102,154l41.3,84.87A15.86,15.86,0,0,0,157.74,248q.69,0,1.38-.06a15.88,15.88,0,0,0,14-11.51l58.2-191.94c0-.05,0-.1,0-.15A16,16,0,0,0,227.32,28.68ZM157.83,231.85l-.05.14,0-.07-40.06-82.3,48-48a8,8,0,0,0-11.31-11.31l-48,48L24.08,98.25l-.07,0,.14,0L216,40Z"/></symbol>
<symbol id="i-checks" viewBox="0 0 256 256" fill="currentColor"><path d="M149.61,85.71l-89.6,88a8,8,0,0,1-11.22,0L10.39,136a8,8,0,1,1,11.22-11.41L54.4,156.79l84-82.5a8,8,0,1,1,11.22,11.42Zm96.1-11.32a8,8,0,0,0-11.32-.1l-84,82.5-18.83-18.5a8,8,0,0,0-11.21,11.42l24.43,24a8,8,0,0,0,11.22,0l89.6-88A8,8,0,0,0,245.71,74.39Z"/></symbol>
<symbol id="i-lock-key" viewBox="0 0 256 256" fill="currentColor"><path d="M128,112a28,28,0,0,0-8,54.83V184a8,8,0,0,0,16,0V166.83A28,28,0,0,0,128,112Zm0,40a12,12,0,1,1,12-12A12,12,0,0,1,128,152Zm80-72H176V56a48,48,0,0,0-96,0V80H48A16,16,0,0,0,32,96V208a16,16,0,0,0,16,16H208a16,16,0,0,0,16-16V96A16,16,0,0,0,208,80ZM96,56a32,32,0,0,1,64,0V80H96ZM208,208H48V96H208V208Z"/></symbol>
<symbol id="i-eye-slash" viewBox="0 0 256 256" fill="currentColor"><path d="M53.92,34.62A8,8,0,1,0,42.08,45.38L61.32,66.55C25,88.84,9.38,123.2,8.69,124.76a8,8,0,0,0,0,6.5c.35.79,8.82,19.57,27.65,38.4C61.43,194.74,93.12,208,128,208a127.11,127.11,0,0,0,52.07-10.83l22,24.21a8,8,0,1,0,11.84-10.76Zm47.33,75.84,41.67,45.85a32,32,0,0,1-41.67-45.85ZM128,192c-30.78,0-57.67-11.19-79.93-33.25A133.16,133.16,0,0,1,25,128c4.69-8.79,19.66-33.39,47.35-49.38l18,19.75a48,48,0,0,0,63.66,70l14.73,16.2A112,112,0,0,1,128,192Zm6-95.43a8,8,0,0,1,3-15.72,48.16,48.16,0,0,1,38.77,42.64,8,8,0,0,1-7.22,8.71,6.39,6.39,0,0,1-.75,0,8,8,0,0,1-8-7.26A32.09,32.09,0,0,0,134,96.57Zm113.28,34.69c-.42.94-10.55,23.37-33.36,43.8a8,8,0,1,1-10.67-11.92A132.77,132.77,0,0,0,231.05,128a133.15,133.15,0,0,0-23.12-30.77C185.67,75.19,158.78,64,128,64a118.37,118.37,0,0,0-19.36,1.57A8,8,0,1,1,106,49.79,134,134,0,0,1,128,48c34.88,0,66.57,13.26,91.66,38.35,18.83,18.83,27.3,37.62,27.65,38.41A8,8,0,0,1,247.31,131.26Z"/></symbol>
<symbol id="i-toggle-right" viewBox="0 0 256 256" fill="currentColor"><path d="M176,56H80a72,72,0,0,0,0,144h96a72,72,0,0,0,0-144Zm0,128H80A56,56,0,0,1,80,72h96a56,56,0,0,1,0,112Zm0-96a40,40,0,1,0,40,40A40,40,0,0,0,176,88Zm0,64a24,24,0,1,1,24-24A24,24,0,0,1,176,152Z"/></symbol>
<symbol id="i-sign-in" viewBox="0 0 256 256" fill="currentColor"><path d="M141.66,133.66l-40,40a8,8,0,0,1-11.32-11.32L116.69,136H24a8,8,0,0,1,0-16h92.69L90.34,93.66a8,8,0,0,1,11.32-11.32l40,40A8,8,0,0,1,141.66,133.66ZM200,32H136a8,8,0,0,0,0,16h56V208H136a8,8,0,0,0,0,16h64a8,8,0,0,0,8-8V40A8,8,0,0,0,200,32Z"/></symbol>
<symbol id="i-users" viewBox="0 0 256 256" fill="currentColor"><path d="M117.25,157.92a60,60,0,1,0-66.5,0A95.83,95.83,0,0,0,3.53,195.63a8,8,0,1,0,13.4,8.74,80,80,0,0,1,134.14,0,8,8,0,0,0,13.4-8.74A95.83,95.83,0,0,0,117.25,157.92ZM40,108a44,44,0,1,1,44,44A44.05,44.05,0,0,1,40,108Zm210.14,98.7a8,8,0,0,1-11.07-2.33A79.83,79.83,0,0,0,172,168a8,8,0,0,1,0-16,44,44,0,1,0-16.34-84.87,8,8,0,1,1-5.94-14.85,60,60,0,0,1,55.53,105.64,95.83,95.83,0,0,1,47.22,37.71A8,8,0,0,1,250.14,206.7Z"/></symbol>
<symbol id="i-dots-six-vertical" viewBox="0 0 256 256" fill="currentColor"><path d="M104,60A12,12,0,1,1,92,48,12,12,0,0,1,104,60Zm60,12a12,12,0,1,0-12-12A12,12,0,0,0,164,72ZM92,116a12,12,0,1,0,12,12A12,12,0,0,0,92,116Zm72,0a12,12,0,1,0,12,12A12,12,0,0,0,164,116ZM92,184a12,12,0,1,0,12,12A12,12,0,0,0,92,184Zm72,0a12,12,0,1,0,12,12A12,12,0,0,0,164,184Z"/></symbol>
<symbol id="i-sparkle" viewBox="0 0 256 256" fill="currentColor"><path d="M197.58,129.06,146,110l-19-51.62a15.92,15.92,0,0,0-29.88,0L78,110l-51.62,19a15.92,15.92,0,0,0,0,29.88L78,178l19,51.62a15.92,15.92,0,0,0,29.88,0L146,178l51.62-19a15.92,15.92,0,0,0,0-29.88ZM137,164.22a8,8,0,0,0-4.74,4.74L112,223.85,91.78,169A8,8,0,0,0,87,164.22L32.15,144,87,123.78A8,8,0,0,0,91.78,119L112,64.15,132.22,119a8,8,0,0,0,4.74,4.74L191.85,144ZM144,40a8,8,0,0,1,8-8h16V16a8,8,0,0,1,16,0V32h16a8,8,0,0,1,0,16H184V64a8,8,0,0,1-16,0V48H152A8,8,0,0,1,144,40ZM248,88a8,8,0,0,1-8,8h-8v8a8,8,0,0,1-16,0V96h-8a8,8,0,0,1,0-16h8V72a8,8,0,0,1,16,0v8h8A8,8,0,0,1,248,88Z"/></symbol>
<symbol id="i-question" viewBox="0 0 256 256" fill="currentColor"><path d="M140,180a12,12,0,1,1-12-12A12,12,0,0,1,140,180ZM128,72c-22.06,0-40,16.15-40,36v4a8,8,0,0,0,16,0v-4c0-11,10.77-20,24-20s24,9,24,20-10.77,20-24,20a8,8,0,0,0-8,8v8a8,8,0,0,0,16,0v-.72c18.24-3.35,32-17.9,32-35.28C168,88.15,150.06,72,128,72Zm104,56A104,104,0,1,1,128,24,104.11,104.11,0,0,1,232,128Zm-16,0a88,88,0,1,0-88,88A88.1,88.1,0,0,0,216,128Z"/></symbol>
<symbol id="i-seal-check" viewBox="0 0 256 256" fill="currentColor"><path d="M225.86,102.82c-3.77-3.94-7.67-8-9.14-11.57-1.36-3.27-1.44-8.69-1.52-13.94-.15-9.76-.31-20.82-8-28.51s-18.75-7.85-28.51-8c-5.25-.08-10.67-.16-13.94-1.52-3.56-1.47-7.63-5.37-11.57-9.14C146.28,23.51,138.44,16,128,16s-18.27,7.51-25.18,14.14c-3.94,3.77-8,7.67-11.57,9.14C88,40.64,82.56,40.72,77.31,40.8c-9.76.15-20.82.31-28.51,8S41,67.55,40.8,77.31c-.08,5.25-.16,10.67-1.52,13.94-1.47,3.56-5.37,7.63-9.14,11.57C23.51,109.72,16,117.56,16,128s7.51,18.27,14.14,25.18c3.77,3.94,7.67,8,9.14,11.57,1.36,3.27,1.44,8.69,1.52,13.94.15,9.76.31,20.82,8,28.51s18.75,7.85,28.51,8c5.25.08,10.67.16,13.94,1.52,3.56,1.47,7.63,5.37,11.57,9.14C109.72,232.49,117.56,240,128,240s18.27-7.51,25.18-14.14c3.94-3.77,8-7.67,11.57-9.14,3.27-1.36,8.69-1.44,13.94-1.52,9.76-.15,20.82-.31,28.51-8s7.85-18.75,8-28.51c.08-5.25.16-10.67,1.52-13.94,1.47-3.56,5.37-7.63,9.14-11.57C232.49,146.28,240,138.44,240,128S232.49,109.73,225.86,102.82Zm-11.55,39.29c-4.79,5-9.75,10.17-12.38,16.52-2.52,6.1-2.63,13.07-2.73,19.82-.1,7-.21,14.33-3.32,17.43s-10.39,3.22-17.43,3.32c-6.75.1-13.72.21-19.82,2.73-6.35,2.63-11.52,7.59-16.52,12.38S132,224,128,224s-9.15-4.92-14.11-9.69-10.17-9.75-16.52-12.38c-6.1-2.52-13.07-2.63-19.82-2.73-7-.1-14.33-.21-17.43-3.32s-3.22-10.39-3.32-17.43c-.1-6.75-.21-13.72-2.73-19.82-2.63-6.35-7.59-11.52-12.38-16.52S32,132,32,128s4.92-9.15,9.69-14.11,9.75-10.17,12.38-16.52c2.52-6.1,2.63-13.07,2.73-19.82.1-7,.21-14.33,3.32-17.43S70.51,56.9,77.55,56.8c6.75-.1,13.72-.21,19.82-2.73,6.35-2.63,11.52-7.59,16.52-12.38S124,32,128,32s9.15,4.92,14.11,9.69,10.17,9.75,16.52,12.38c6.1,2.52,13.07,2.63,19.82,2.73,7,.1,14.33.21,17.43,3.32s3.22,10.39,3.32,17.43c.1,6.75.21,13.72,2.73,19.82,2.63,6.35,7.59,11.52,12.38,16.52S224,124,224,128,219.08,137.15,214.31,142.11ZM173.66,98.34a8,8,0,0,1,0,11.32l-56,56a8,8,0,0,1-11.32,0l-24-24a8,8,0,0,1,11.32-11.32L112,148.69l50.34-50.35A8,8,0,0,1,173.66,98.34Z"/></symbol>
<symbol id="i-list-checks" viewBox="0 0 256 256" fill="currentColor"><path d="M224,128a8,8,0,0,1-8,8H128a8,8,0,0,1,0-16h88A8,8,0,0,1,224,128ZM128,72h88a8,8,0,0,0,0-16H128a8,8,0,0,0,0,16Zm88,112H128a8,8,0,0,0,0,16h88a8,8,0,0,0,0-16ZM82.34,42.34,56,68.69,45.66,58.34A8,8,0,0,0,34.34,69.66l16,16a8,8,0,0,0,11.32,0l32-32A8,8,0,0,0,82.34,42.34Zm0,64L56,132.69,45.66,122.34a8,8,0,0,0-11.32,11.32l16,16a8,8,0,0,0,11.32,0l32-32a8,8,0,0,0-11.32-11.32Zm0,64L56,196.69,45.66,186.34a8,8,0,0,0-11.32,11.32l16,16a8,8,0,0,0,11.32,0l32-32a8,8,0,0,0-11.32-11.32Z"/></symbol>
<symbol id="i-chat-circle-dots" viewBox="0 0 256 256" fill="currentColor"><path d="M140,128a12,12,0,1,1-12-12A12,12,0,0,1,140,128ZM84,116a12,12,0,1,0,12,12A12,12,0,0,0,84,116Zm88,0a12,12,0,1,0,12,12A12,12,0,0,0,172,116Zm60,12A104,104,0,0,1,79.12,219.82L45.07,231.17a16,16,0,0,1-20.24-20.24l11.35-34.05A104,104,0,1,1,232,128Zm-16,0A88,88,0,1,0,51.81,172.06a8,8,0,0,1,.66,6.54L40,216,77.4,203.53a7.85,7.85,0,0,1,2.53-.42,8,8,0,0,1,4,1.08A88,88,0,0,0,216,128Z"/></symbol>
<symbol id="i-chart-pie-slice" viewBox="0 0 256 256" fill="currentColor"><path d="M100,116.43a8,8,0,0,0,4-6.93v-72A8,8,0,0,0,93.34,30,104.06,104.06,0,0,0,25.73,147a8,8,0,0,0,4.52,5.81,7.86,7.86,0,0,0,3.35.74,8,8,0,0,0,4-1.07ZM88,49.62v55.26L40.12,132.51C40,131,40,129.48,40,128A88.12,88.12,0,0,1,88,49.62ZM128,24a8,8,0,0,0-8,8v91.82L41.19,169.73a8,8,0,0,0-2.87,11A104,104,0,1,0,128,24Zm0,192a88.47,88.47,0,0,1-71.49-36.68l75.52-44a8,8,0,0,0,4-6.92V40.36A88,88,0,0,1,128,216Z"/></symbol>
<symbol id="i-printer" viewBox="0 0 256 256" fill="currentColor"><path d="M214.67,72H200V40a8,8,0,0,0-8-8H64a8,8,0,0,0-8,8V72H41.33C27.36,72,16,82.77,16,96v80a8,8,0,0,0,8,8H56v32a8,8,0,0,0,8,8H192a8,8,0,0,0,8-8V184h32a8,8,0,0,0,8-8V96C240,82.77,228.64,72,214.67,72ZM72,48H184V72H72ZM184,208H72V160H184Zm40-40H200V152a8,8,0,0,0-8-8H64a8,8,0,0,0-8,8v16H32V96c0-4.41,4.19-8,9.33-8H214.67c5.14,0,9.33,3.59,9.33,8Zm-24-52a12,12,0,1,1-12-12A12,12,0,0,1,200,116Z"/></symbol>
</defs></svg>
